<svg width="80" height="80" viewBox="0 0 80 80" fill="none" xmlns="http://www.w3.org/2000/svg">
<path d="M19.5444 34.6421H15.5444C15.5444 20.7743 26.7423 10.2371 40.9484 10.2371C55.1554 10.2371 66.3534 20.7741 66.3534 34.6421V53H62.3534V34.6421C62.3534 23.0395 52.9989 14.2371 40.9484 14.2371C28.8989 14.2371 19.5444 23.0396 19.5444 34.6421Z" fill="#D8262C"/>
<path d="M62.3534 34.6421H66.3534C66.3534 20.7743 55.1557 10.2371 40.9495 10.2371C26.7425 10.2371 15.5444 20.7741 15.5444 34.6421L15.5445 41H19.5445L19.5444 34.6421C19.5444 23.0395 28.8991 14.2371 40.9495 14.2371C52.9991 14.2371 62.3534 23.0396 62.3534 34.6421Z" fill="#D8262C"/>
<path d="M57.6627 18.7263C56.8816 19.5073 55.6153 19.5072 54.8342 18.7261C54.0532 17.945 54.0533 16.6787 54.8344 15.8977L64.1474 6.58571C64.9285 5.8047 66.1948 5.80477 66.9758 6.58586C67.7568 7.36695 67.7568 8.63328 66.9757 9.41429L57.6627 18.7263Z" fill="#D8262C"/>
<path d="M27.0963 15.8978C27.8774 16.6788 27.8774 17.9452 27.0963 18.7262C26.3153 19.5073 25.049 19.5073 24.2679 18.7262L14.9559 9.41421C14.1749 8.63317 14.1749 7.36684 14.9559 6.58579C15.737 5.80474 17.0033 5.80474 17.7843 6.58579L27.0963 15.8978Z" fill="#D8262C"/>
<path fill-rule="evenodd" clip-rule="evenodd" d="M51.0738 29.4336C52.7428 29.4336 54.0958 28.0796 54.0958 26.4116C54.0958 24.7426 52.7428 23.3896 51.0738 23.3896C49.4048 23.3896 48.0518 24.7426 48.0518 26.4116C48.0518 28.0796 49.4048 29.4336 51.0738 29.4336Z" fill="#D8262C"/>
<path fill-rule="evenodd" clip-rule="evenodd" d="M30.8238 29.4336C32.4928 29.4336 33.8458 28.0796 33.8458 26.4116C33.8458 24.7426 32.4928 23.3896 30.8238 23.3896C29.1548 23.3896 27.8018 24.7426 27.8018 26.4116C27.8018 28.0796 29.1548 29.4336 30.8238 29.4336Z" fill="#D8262C"/>
<path d="M10.8137 49.1658L15.2494 40.1615C15.2494 40.1615 19.6596 42.334 23.9646 41.0119C28.2696 39.6897 29.9756 36.2265 29.9756 36.2265L39.9447 41.1374L31.0734 59.146L10.8137 49.1658Z" stroke="#D8262C" stroke-width="4" stroke-linecap="round" stroke-linejoin="round"/>
<path d="M42.7169 35.5098L28.8555 63.6482L38.9853 68.6383L39.1667 60.1394L46.0376 54.3223L46.219 45.8233L52.8467 40.4999L42.7169 35.5098Z" stroke="#D8262C" stroke-width="4" stroke-linecap="round" stroke-linejoin="round"/>
<path d="M39.5229 64.7073L56.406 73.0241L66.3862 52.7645L49.5032 44.4476" stroke="#D8262C" stroke-width="4" stroke-linecap="round" stroke-linejoin="round"/>
</svg>
